<svg
	width="147"
	height="72"
	viewBox="0 0 147 72"
	fill="none"
	xmlns="http://www.w3.org/2000/svg"
>
	<rect width="147" height="72" fill="#FF009D" />
	<path
		d="M29.0625 56L24.6328 14.75H32.6953L34.9688 40.7891L37.2891 14.75H44.9766L47.1797 40.7891L49.3828 14.75H57.5391L53.0391 56H43.1484L41.0859 36.1484L39.1172 56H29.0625ZM58.2188 56L62.2031 14.75H76.1953L80.1094 56H72.3047L71.7188 49.3438H66.75L66.2344 56H58.2188ZM67.3359 42.7578H71.0859L69.2812 21.7812H68.9062L67.3359 42.7578ZM85.4062 56L80.3203 14.7266H88.1719L91.1953 42.8047L93.8906 14.7266H101.742L96.6562 56H85.4062ZM104.156 56V14.75H120.656V22.7188H112.547V30.7578H120.328V38.5156H112.547V47.9609H121.195V56H104.156Z"
		fill="#FCEEE7"
	/>
</svg>
